{"title":"Six.Nations.Rugby.Union-England.v.Italy-2013.03.10.720p.x264","uid":8243443,"size":3294254615,"categoryP":"video","categoryS":"hd___tv_shows","magnet":"?xt=urn:btih:f77597a9b9db8049d1c8bcf33c64c07be1252d0d&amp;dn=Six.Nations.Rugby.Union-England.v.Italy-2013.03.10.720p.x264&amp;tr=udp%3A%2F%2Ftracker.openbittorrent.com%3A80&amp;tr=udp%3A%2F%2Fopen.demonii.com%3A1337&amp;tr=udp%3A%2F%2Ftracker.coppersurfer.tk%3A6969&amp;tr=udp%3A%2F%2Fexodus.desync.com%3A6969","seeders":1,"leechers":0,"uploader":"rugbybill","files":4,"time":1363008845,"description":"SPORT: Six Nations Rugby Union - England v Italy\nOn: BBC 1 HD \nDate: Sunday 10th March 2013 \nKO Time: 15:00\n\nStuart Lancaster's England host Italy as they continue their bid to become Six Nations champions. The Azzurri are traditionally seen as the weakest team in the competition, but proved with their opening-day defeat of France that they are no pushovers. Equally, the men in white will be determined not to rest on their laurels - especially given their superb recent displays against nations such as New Zealand and Ireland. When England went to Rome last year, they managed to eke out a narrow 19-15 win. \n\nGeneral\nComplete name: 2013.03.10.6N.England.v.Italy.720p.mp4\nFormat: MPEG-4\nFormat profile: Base Media\nCodec ID: isom\nFile size: 3.07 GiB\nDuration: 1h 47mn\nOverall bit rate mode: Variable\nOverall bit rate: 4 098 Kbps\n\nVideo\nID: 1\nFormat: AVC\nFormat/Info: Advanced Video Codec\nFormat profile: &lt;a class=&quot;__cf_email__&quot; href=&quot;/cdn-cgi/l/email-protection&quot; data-cfemail=&quot;eaa2838d82aaa6dec4db&quot;&gt;[email&amp;#160;protected]&lt;/a&gt;&lt;script cf-hash='f9e31' type=&quot;text/javascript&quot;&gt;\n/* &lt;![CDATA[ */!function(){try{var t=&quot;currentScript&quot;in document?document.currentScript:function(){for(var t=document.getElementsByTagName(&quot;script&quot;),e=t.length;e--;)if(t[e].getAttribute(&quot;cf-hash&quot;))return t[e]}();if(t&amp;&amp;t.previousSibling){var e,r,n,i,c=t.previousSibling,a=c.getAttribute(&quot;data-cfemail&quot;);if(a){for(e=&quot;&quot;,r=parseInt(a.substr(0,2),16),n=2;a.length-n;n+=2)i=parseInt(a.substr(n,2),16)^r,e+=String.fromCharCode(i);e=document.createTextNode(e),c.parentNode.replaceChild(e,c)}}}catch(u){}}();/* ]]&gt; */&lt;/script&gt;\nFormat settings, CABAC: Yes\nFormat settings, ReFrames: 5 frames\nCodec ID: avc1\nCodec ID/Info: Advanced Video Coding\nDuration: 1h 47mn\nBit rate: 3 970 Kbps\nMaximum bit rate: 11.9 Mbps\nWidth: 1 280 pixels\nHeight: 720 pixels\nDisplay aspect ratio: 16:9\nFrame rate mode: Constant\nFrame rate: 25.000 fps\nColor space: YUV\nChroma subsampling: 4:2:0\nBit depth: 8 bits\nScan type: Progressive\nBits/(Pixel*Frame): 0.172\nStream size: 2.97 GiB (97%)\nWriting library: x264 core 130 r2273 b3065e6\n\nAudio\nID: 2\nFormat: AAC\nFormat/Info: Advanced Audio Codec\nFormat profile: LC\nCodec ID: 40\nDuration: 1h 47mn\nBit rate mode: Variable\nBit rate: 124 Kbps\nMaximum bit rate: 128 Kbps\nChannel(s): 2 channels\nChannel positions: Front: L R\nSampling rate: 48.0 KHz\nCompression mode: Lossy\nDelay relative to video: 80ms\nStream size: 94.9 MiB (3%)\nLanguage: English","torrent":{"xt":"urn:btih:f77597a9b9db8049d1c8bcf33c64c07be1252d0d","amp;dn":"Six.Nations.Rugby.Union-England.v.Italy-2013.03.10.720p.x264","amp;tr":["udp%3A%2F%2Ftracker.openbittorrent.com%3A80","udp%3A%2F%2Fopen.demonii.com%3A1337","udp%3A%2F%2Ftracker.coppersurfer.tk%3A6969","udp%3A%2F%2Fexodus.desync.com%3A6969"],"infoHash":"f77597a9b9db8049d1c8bcf33c64c07be1252d0d","infoHashBuffer":{"type":"Buffer","data":[247,117,151,169,185,219,128,73,209,200,188,243,60,100,192,123,225,37,45,13]},"announce":[],"urlList":[]}}